<?xml version="1.0" encoding="UTF-8"?>
<svg width="32px" height="32px" viewBox="0 0 32 32" version="1.1" xmlns="http://www.w3.org/2000/svg">
    <title>Camera Icon</title>
    <g fill="#C0A960">
        <path d="M16,12 C13.2385763,12 11,14.2385763 11,17 C11,19.7614237 13.2385763,22 16,22 C18.7614237,22 21,19.7614237 21,17 C21,14.2385763 18.7614237,12 16,12 Z M16,20 C14.3431458,20 13,18.6568542 13,17 C13,15.3431458 14.3431458,14 16,14 C17.6568542,14 19,15.3431458 19,17 C19,18.6568542 17.6568542,20 16,20 Z"/>
        <path d="M27,8 L22,8 L20.7573593,5.51471863 C20.3978247,4.79544179 19.6680034,4.33333333 18.8659932,4.33333333 L13.1340068,4.33333333 C12.3319966,4.33333333 11.6021753,4.79544179 11.2426407,5.51471863 L10,8 L5,8 C3.34314575,8 2,9.34314575 2,11 L2,24 C2,25.6568542 3.34314575,27 5,27 L27,27 C28.6568542,27 30,25.6568542 30,24 L30,11 C30,9.34314575 28.6568542,8 27,8 Z M28,24 C28,24.5522847 27.5522847,25 27,25 L5,25 C4.44771525,25 4,24.5522847 4,24 L4,11 C4,10.4477153 4.44771525,10 5,10 L11,10 L12.8659932,6.33333333 L19.1340068,6.33333333 L21,10 L27,10 C27.5522847,10 28,10.4477153 28,11 L28,24 Z"/>
    </g>
</svg> 